<?xml version="1.0" encoding="UTF-8"?>
<svg xmlns="http://www.w3.org/2000/svg" xmlns:xlink="http://www.w3.org/1999/xlink" width="32pt" height="32pt" viewBox="0 0 32 32" version="1.1">
<g id="surface1">
<path style=" stroke:none;fill-rule:nonzero;fill:rgb(0%,0%,0%);fill-opacity:1;" d="M 14.601562 0.0390625 C 13.28125 0.164062 11.808594 0.488281 10.652344 0.902344 C 6.394531 2.4375 3.113281 5.507812 1.285156 9.667969 C 0.832031 10.699219 0.4375 12.027344 0.222656 13.238281 C 0.0429688 14.242188 0.0234375 14.546875 0.0234375 16 C 0.0234375 17.453125 0.0429688 17.757812 0.222656 18.761719 C 0.996094 23.148438 3.535156 27 7.246094 29.414062 C 9.070312 30.605469 11 31.363281 13.171875 31.757812 C 14.253906 31.953125 14.601562 31.980469 16 31.980469 C 17.398438 31.980469 17.746094 31.953125 18.828125 31.757812 C 22.449219 31.105469 25.679688 29.277344 28.058594 26.539062 C 28.976562 25.488281 29.636719 24.503906 30.285156 23.21875 C 31.167969 21.46875 31.617188 20.003906 31.90625 17.921875 C 31.964844 17.519531 31.976562 17.132812 31.976562 16 C 31.976562 14.742188 31.96875 14.507812 31.886719 13.957031 C 31.589844 11.824219 30.980469 9.976562 30.023438 8.261719 C 28.039062 4.707031 25.015625 2.179688 21.105469 0.816406 C 20.277344 0.527344 19.011719 0.238281 17.910156 0.0976562 C 17.335938 0.0195312 15.203125 -0.015625 14.601562 0.0390625 Z M 17.265625 11.140625 C 17.46875 11.222656 17.519531 11.382812 17.519531 11.914062 C 17.519531 12.347656 17.519531 12.355469 17.640625 12.476562 L 17.761719 12.597656 L 17.753906 13.347656 L 17.738281 14.101562 L 17.621094 14.101562 C 17.5 14.101562 17.5 14.101562 17.488281 13.847656 L 17.476562 13.601562 L 14.238281 13.601562 L 14.238281 14.121094 L 14 14.121094 L 14 12.605469 L 14.121094 12.46875 C 14.238281 12.332031 14.238281 12.324219 14.238281 11.847656 C 14.238281 11.390625 14.242188 11.359375 14.339844 11.242188 C 14.394531 11.179688 14.484375 11.117188 14.53125 11.109375 C 14.578125 11.101562 15.183594 11.089844 15.871094 11.085938 C 16.886719 11.078125 17.148438 11.09375 17.265625 11.140625 Z M 13.601562 14 L 13.601562 14.199219 L 6.398438 14.199219 L 6.398438 13.800781 L 13.601562 13.800781 Z M 25.601562 14 L 25.601562 14.199219 L 18.398438 14.199219 L 18.398438 13.800781 L 25.601562 13.800781 Z M 28.800781 18.199219 L 28.800781 21.398438 L 3.199219 21.398438 L 3.199219 15 L 28.800781 15 Z M 28.800781 18.199219 "/>
<path style=" stroke:none;fill-rule:nonzero;fill:rgb(0%,0%,0%);fill-opacity:1;" d="M 14.546875 11.386719 C 14.53125 11.398438 14.519531 11.628906 14.519531 11.886719 L 14.519531 12.363281 L 14.628906 12.351562 C 14.722656 12.339844 14.742188 12.316406 14.765625 12.1875 C 14.777344 12.105469 14.828125 11.996094 14.875 11.949219 C 14.964844 11.859375 15.105469 11.847656 15.839844 11.875 C 15.894531 11.878906 16.105469 11.867188 16.304688 11.855469 C 16.816406 11.824219 17 11.933594 17 12.265625 C 17 12.34375 17.019531 12.359375 17.121094 12.359375 L 17.242188 12.359375 L 17.230469 11.867188 L 17.21875 11.378906 L 15.894531 11.367188 C 15.167969 11.363281 14.5625 11.371094 14.546875 11.386719 Z M 14.546875 11.386719 "/>
<path style=" stroke:none;fill-rule:nonzero;fill:rgb(0%,0%,0%);fill-opacity:1;" d="M 14.285156 12.65625 C 14.253906 12.691406 14.238281 12.828125 14.246094 13.027344 L 14.261719 13.339844 L 15.871094 13.351562 L 17.484375 13.359375 L 17.472656 12.992188 L 17.460938 12.621094 L 15.894531 12.609375 C 14.585938 12.601562 14.324219 12.609375 14.285156 12.65625 Z M 14.285156 12.65625 "/>
<path style=" stroke:none;fill-rule:nonzero;fill:rgb(0%,0%,0%);fill-opacity:1;" d="M 3.601562 18.199219 L 3.601562 21 L 28.398438 21 L 28.398438 15.398438 L 3.601562 15.398438 Z M 9.839844 18.621094 L 9.839844 20 L 9.660156 20 C 9.488281 20 9.480469 19.996094 9.480469 19.882812 L 9.480469 19.769531 L 9.355469 19.882812 C 9.148438 20.074219 8.765625 20.09375 8.515625 19.914062 C 8.257812 19.730469 8.105469 19.164062 8.195312 18.714844 C 8.289062 18.273438 8.574219 18 8.957031 18 C 9.140625 18 9.246094 18.042969 9.390625 18.171875 L 9.480469 18.253906 L 9.484375 18.097656 C 9.484375 18.011719 9.488281 17.8125 9.488281 17.660156 C 9.488281 17.261719 9.496094 17.238281 9.683594 17.238281 L 9.839844 17.238281 Z M 13.761719 18.40625 C 13.761719 19.050781 13.777344 19.601562 13.792969 19.628906 C 13.839844 19.703125 14.03125 19.761719 14.242188 19.761719 C 14.4375 19.761719 14.441406 19.761719 14.441406 19.882812 L 14.441406 20.007812 L 14.09375 19.992188 C 13.691406 19.972656 13.554688 19.90625 13.476562 19.707031 C 13.441406 19.621094 13.421875 19.242188 13.40625 18.527344 L 13.390625 17.480469 L 12.839844 17.480469 L 12.839844 17.238281 L 13.761719 17.238281 Z M 23.027344 17.441406 C 23.300781 17.585938 23.347656 17.589844 23.40625 17.460938 C 23.441406 17.386719 23.484375 17.359375 23.570312 17.359375 C 23.683594 17.359375 23.6875 17.367188 23.664062 17.488281 C 23.632812 17.65625 23.472656 17.800781 23.3125 17.800781 C 23.242188 17.800781 23.09375 17.742188 22.972656 17.675781 C 22.789062 17.566406 22.738281 17.554688 22.65625 17.597656 C 22.605469 17.621094 22.558594 17.664062 22.558594 17.699219 C 22.558594 17.738281 22.519531 17.761719 22.441406 17.761719 C 22.335938 17.761719 22.320312 17.742188 22.320312 17.65625 C 22.320312 17.507812 22.519531 17.320312 22.675781 17.320312 C 22.742188 17.320312 22.902344 17.371094 23.027344 17.441406 Z M 7.1875 18.101562 C 7.425781 18.238281 7.441406 18.308594 7.441406 19.195312 L 7.441406 20 L 7.300781 20 C 7.175781 20 7.160156 19.988281 7.160156 19.898438 C 7.160156 19.78125 7.144531 19.777344 7.007812 19.871094 C 6.65625 20.121094 6.210938 20.078125 6.019531 19.789062 C 5.9375 19.65625 5.933594 19.347656 6.015625 19.21875 C 6.117188 19.066406 6.359375 18.964844 6.757812 18.910156 L 7.121094 18.863281 L 7.121094 18.691406 C 7.121094 18.296875 6.960938 18.195312 6.46875 18.292969 C 6.292969 18.328125 6.136719 18.351562 6.128906 18.34375 C 6.125 18.335938 6.113281 18.28125 6.109375 18.214844 C 6.101562 18.113281 6.117188 18.101562 6.300781 18.050781 C 6.574219 17.984375 7.035156 18.007812 7.1875 18.101562 Z M 11.71875 18.089844 C 11.863281 18.160156 11.925781 18.222656 12.007812 18.398438 C 12.066406 18.519531 12.132812 18.722656 12.144531 18.847656 L 12.171875 19.078125 L 11.542969 19.078125 C 11.199219 19.078125 10.921875 19.097656 10.921875 19.113281 C 10.921875 19.238281 11.054688 19.558594 11.148438 19.648438 C 11.320312 19.808594 11.472656 19.820312 11.757812 19.703125 L 12 19.605469 L 12.058594 19.71875 L 12.121094 19.835938 L 11.898438 19.945312 C 11.703125 20.035156 11.644531 20.046875 11.410156 20.027344 C 10.933594 19.992188 10.648438 19.675781 10.609375 19.128906 C 10.550781 18.308594 11.113281 17.785156 11.71875 18.089844 Z M 16.421875 18.054688 C 16.558594 18.101562 16.578125 18.121094 16.570312 18.214844 C 16.566406 18.28125 16.554688 18.335938 16.546875 18.347656 C 16.535156 18.355469 16.429688 18.335938 16.300781 18.300781 C 16.019531 18.214844 15.832031 18.246094 15.71875 18.386719 C 15.542969 18.617188 15.636719 18.730469 16.097656 18.855469 C 16.546875 18.976562 16.675781 19.089844 16.703125 19.402344 C 16.730469 19.683594 16.632812 19.851562 16.371094 19.96875 C 16.21875 20.035156 16.136719 20.046875 15.902344 20.027344 C 15.433594 19.992188 15.285156 19.898438 15.394531 19.722656 C 15.425781 19.679688 15.457031 19.679688 15.585938 19.71875 C 15.820312 19.800781 16.164062 19.792969 16.292969 19.707031 C 16.378906 19.652344 16.398438 19.609375 16.398438 19.484375 C 16.398438 19.285156 16.324219 19.222656 15.980469 19.140625 C 15.617188 19.046875 15.496094 18.984375 15.421875 18.839844 C 15.277344 18.5625 15.371094 18.246094 15.65625 18.074219 C 15.800781 17.988281 16.167969 17.976562 16.421875 18.054688 Z M 21 18.089844 C 21.144531 18.160156 21.203125 18.222656 21.289062 18.398438 C 21.347656 18.519531 21.410156 18.722656 21.425781 18.847656 L 21.453125 19.078125 L 20.824219 19.078125 C 20.480469 19.078125 20.199219 19.097656 20.199219 19.113281 C 20.199219 19.238281 20.335938 19.558594 20.429688 19.648438 C 20.601562 19.808594 20.753906 19.820312 21.035156 19.703125 L 21.28125 19.605469 L 21.339844 19.71875 L 21.398438 19.835938 L 21.179688 19.945312 C 20.984375 20.035156 20.925781 20.046875 20.691406 20.027344 C 20.210938 19.992188 19.929688 19.675781 19.886719 19.128906 C 19.832031 18.308594 20.390625 17.785156 21 18.089844 Z M 23.503906 18.125 C 23.695312 18.300781 23.71875 18.414062 23.71875 19.238281 L 23.71875 20 L 23.398438 20 L 23.398438 19.242188 C 23.398438 18.546875 23.390625 18.484375 23.320312 18.386719 C 23.167969 18.191406 22.808594 18.214844 22.640625 18.429688 C 22.566406 18.523438 22.558594 18.589844 22.558594 19.265625 L 22.558594 20 L 22.21875 20 L 22.21875 18.039062 L 22.367188 18.039062 C 22.503906 18.039062 22.519531 18.050781 22.519531 18.148438 C 22.519531 18.242188 22.523438 18.246094 22.59375 18.1875 C 22.824219 17.976562 23.308594 17.945312 23.503906 18.125 Z M 25.589844 18.042969 C 25.871094 18.152344 26.070312 18.472656 26.109375 18.875 C 26.164062 19.5625 25.824219 20.035156 25.269531 20.039062 C 24.902344 20.039062 24.613281 19.808594 24.5 19.433594 C 24.382812 19.03125 24.457031 18.53125 24.667969 18.277344 C 24.867188 18.039062 25.292969 17.933594 25.589844 18.042969 Z M 17.882812 18.066406 C 17.886719 18.089844 17.890625 18.425781 17.894531 18.820312 C 17.902344 19.289062 17.925781 19.570312 17.953125 19.628906 C 18.023438 19.761719 18.28125 19.824219 18.480469 19.765625 C 18.566406 19.738281 18.660156 19.675781 18.6875 19.628906 C 18.71875 19.570312 18.738281 19.3125 18.742188 18.878906 C 18.753906 18.515625 18.757812 18.179688 18.757812 18.128906 C 18.761719 18.042969 18.777344 18.035156 18.910156 18.046875 L 19.058594 18.058594 L 19.058594 18.847656 C 19.058594 19.578125 19.054688 19.640625 18.976562 19.742188 C 18.804688 19.980469 18.703125 20.019531 18.320312 20.019531 C 17.9375 20.019531 17.835938 19.980469 17.664062 19.742188 C 17.589844 19.644531 17.578125 19.566406 17.566406 18.894531 C 17.558594 18.488281 17.5625 18.128906 17.574219 18.097656 C 17.601562 18.039062 17.875 18.011719 17.882812 18.066406 Z M 17.882812 18.066406 "/>
<path style=" stroke:none;fill-rule:nonzero;fill:rgb(0%,0%,0%);fill-opacity:1;" d="M 8.820312 18.277344 C 8.609375 18.367188 8.515625 18.59375 8.511719 19.007812 C 8.511719 19.535156 8.65625 19.78125 8.976562 19.78125 C 9.359375 19.78125 9.492188 19.550781 9.472656 18.933594 C 9.460938 18.535156 9.457031 18.515625 9.339844 18.402344 C 9.210938 18.277344 8.964844 18.214844 8.820312 18.277344 Z M 8.820312 18.277344 "/>
<path style=" stroke:none;fill-rule:nonzero;fill:rgb(0%,0%,0%);fill-opacity:1;" d="M 6.683594 19.140625 C 6.371094 19.207031 6.28125 19.285156 6.28125 19.476562 C 6.28125 19.644531 6.308594 19.691406 6.4375 19.757812 C 6.550781 19.820312 6.765625 19.785156 6.972656 19.667969 C 7.121094 19.589844 7.121094 19.585938 7.121094 19.332031 C 7.121094 19.039062 7.128906 19.042969 6.683594 19.140625 Z M 6.683594 19.140625 "/>
<path style=" stroke:none;fill-rule:nonzero;fill:rgb(0%,0%,0%);fill-opacity:1;" d="M 11.242188 18.292969 C 11.109375 18.359375 11 18.515625 10.972656 18.691406 L 10.949219 18.839844 L 11.847656 18.839844 L 11.820312 18.695312 C 11.78125 18.476562 11.714844 18.359375 11.597656 18.296875 C 11.460938 18.226562 11.367188 18.222656 11.242188 18.292969 Z M 11.242188 18.292969 "/>
<path style=" stroke:none;fill-rule:nonzero;fill:rgb(0%,0%,0%);fill-opacity:1;" d="M 20.523438 18.292969 C 20.386719 18.359375 20.28125 18.515625 20.253906 18.691406 L 20.226562 18.839844 L 21.128906 18.839844 L 21.101562 18.695312 C 21.058594 18.476562 20.996094 18.359375 20.875 18.296875 C 20.738281 18.226562 20.648438 18.222656 20.523438 18.292969 Z M 20.523438 18.292969 "/>
<path style=" stroke:none;fill-rule:nonzero;fill:rgb(0%,0%,0%);fill-opacity:1;" d="M 25.078125 18.308594 C 24.875 18.410156 24.785156 18.628906 24.785156 19 C 24.785156 19.527344 24.933594 19.769531 25.257812 19.777344 C 25.621094 19.785156 25.816406 19.46875 25.785156 18.9375 C 25.761719 18.511719 25.632812 18.308594 25.359375 18.265625 C 25.265625 18.242188 25.175781 18.261719 25.078125 18.308594 Z M 25.078125 18.308594 "/>
</g>
</svg>
