<?xml version="1.0" standalone="no"?>
<!DOCTYPE svg PUBLIC "-//W3C//DTD SVG 20010904//EN"
 "http://www.w3.org/TR/2001/REC-SVG-20010904/DTD/svg10.dtd">
<svg version="1.0" xmlns="http://www.w3.org/2000/svg"
 width="800.000000pt" height="800.000000pt" viewBox="0 0 800.000000 800.000000"
 preserveAspectRatio="xMidYMid meet">
<metadata>
Created by potrace 1.16, written by Peter Selinger 2001-2019
</metadata>
<g transform="translate(0.000000,800.000000) scale(0.100000,-0.100000)"
fill="#000000" stroke="none">
<path d="M3650 7990 c-330 -31 -698 -112 -987 -216 -1064 -383 -1885 -1151
-2342 -2191 -113 -258 -212 -590 -265 -893 -45 -251 -50 -327 -50 -690 0 -363
5 -439 50 -690 193 -1097 828 -2060 1756 -2664 456 -297 938 -487 1481 -585
270 -49 357 -56 707 -56 350 0 437 7 707 56 905 163 1713 620 2308 1304 229
263 394 509 556 830 221 438 333 804 406 1325 14 100 17 197 17 480 0 314 -2
373 -22 511 -75 533 -227 995 -466 1424 -496 888 -1252 1520 -2230 1861 -207
72 -523 144 -798 180 -144 19 -677 28 -828 14z m666 -2775 c51 -21 64 -61 64
-194 0 -108 0 -110 30 -140 l30 -30 -2 -188 -3 -188 -30 0 c-30 0 -30 0 -33
63 l-3 62 -404 0 -405 0 0 -65 0 -65 -30 0 -30 0 0 190 0 189 30 34 c30 34 30
36 30 155 0 114 1 122 25 151 14 16 36 32 48 34 12 2 163 5 335 6 254 1 319
-2 348 -14z m-916 -715 l0 -50 -900 0 -900 0 0 50 0 50 900 0 900 0 0 -50z
m3000 0 l0 -50 -900 0 -900 0 0 50 0 50 900 0 900 0 0 -50z m800 -1050 l0
-800 -3200 0 -3200 0 0 800 0 800 3200 0 3200 0 0 -800z"/>
<path d="M3637 5153 c-4 -3 -7 -60 -7 -125 l0 -119 27 3 c24 3 29 9 34 41 3
21 16 48 28 60 22 22 57 25 241 18 14 -1 66 2 116 5 128 8 174 -19 174 -102 0
-20 5 -24 30 -24 l31 0 -3 123 -3 122 -331 3 c-182 1 -333 -1 -337 -5z"/>
<path d="M3571 4836 c-8 -9 -11 -43 -9 -93 l3 -78 403 -3 403 -2 -3 92 -3 93
-391 3 c-328 2 -393 0 -403 -12z"/>
<path d="M900 3450 l0 -700 3100 0 3100 0 0 700 0 700 -3100 0 -3100 0 0 -700z
m1560 -105 l0 -345 -45 0 c-43 0 -45 1 -45 29 l0 29 -31 -29 c-52 -48 -148
-52 -210 -8 -65 46 -103 188 -80 300 23 111 95 179 190 179 46 0 73 -11 109
-43 l22 -20 1 39 c0 21 1 71 1 109 0 100 2 105 49 105 l39 0 0 -345z m980 53
c0 -161 4 -298 8 -305 12 -19 60 -33 113 -33 48 0 49 0 49 -31 l0 -31 -87 4
c-100 5 -134 21 -154 71 -9 22 -14 116 -17 295 l-4 262 -69 0 -69 0 0 30 0 30
115 0 115 0 0 -292z m2317 242 c68 -36 80 -37 95 -5 8 18 19 25 41 25 28 0 29
-2 23 -32 -8 -42 -48 -78 -88 -78 -17 0 -55 14 -85 31 -46 27 -58 30 -79 20
-13 -6 -24 -17 -24 -26 0 -10 -10 -15 -30 -15 -26 0 -30 4 -30 26 0 37 50 84
89 84 17 0 57 -13 88 -30z m-3960 -165 c59 -35 63 -52 63 -274 l0 -201 -35 0
c-31 0 -35 3 -35 25 0 30 -4 31 -38 7 -88 -62 -199 -52 -247 21 -21 33 -22
110 -1 142 25 38 86 64 185 77 l91 12 0 43 c0 99 -40 124 -163 100 -44 -9 -83
-15 -85 -13 -1 2 -4 16 -5 32 -2 26 2 29 48 41 69 17 184 11 222 -12z m1133 3
c36 -18 51 -34 72 -78 15 -30 31 -81 34 -112 l7 -58 -157 0 c-86 0 -156 -4
-156 -8 0 -32 34 -112 57 -134 43 -40 81 -43 152 -14 l61 25 15 -29 15 -29
-55 -27 c-49 -23 -64 -26 -122 -21 -120 9 -191 88 -201 225 -14 205 126 336
278 260z m1175 8 c35 -11 40 -16 38 -40 -1 -16 -4 -30 -6 -33 -3 -2 -30 3 -62
12 -70 21 -117 13 -145 -22 -44 -57 -21 -86 94 -117 113 -30 145 -58 152 -137
7 -70 -18 -112 -83 -141 -38 -17 -59 -20 -117 -15 -118 9 -155 32 -127 76 7
11 15 11 47 1 59 -20 145 -18 177 3 22 14 27 25 27 56 0 50 -19 65 -105 86
-91 23 -121 39 -140 75 -36 69 -12 148 59 191 36 22 128 25 191 5z m1145 -8
c36 -18 51 -34 72 -78 15 -30 31 -81 34 -112 l7 -58 -157 0 c-86 0 -156 -4
-156 -8 0 -32 34 -112 57 -134 43 -40 81 -43 152 -14 l61 25 15 -29 15 -29
-55 -27 c-49 -23 -64 -26 -122 -21 -120 9 -191 88 -201 225 -14 205 126 336
278 260z m626 -9 c48 -44 54 -73 54 -279 l0 -190 -40 0 -40 0 0 189 c0 174 -2
190 -20 214 -38 49 -128 43 -170 -10 -18 -24 -20 -40 -20 -209 l0 -184 -43 0
-42 0 0 245 0 245 37 0 c34 0 38 -3 38 -27 0 -24 1 -25 18 -10 58 53 179 61
228 16z m521 20 c71 -27 121 -107 130 -208 14 -172 -71 -290 -210 -291 -91 0
-164 58 -192 152 -29 100 -11 225 42 289 50 59 156 86 230 58z m-1926 -6 c1
-5 2 -89 3 -188 2 -117 7 -188 14 -202 18 -33 82 -49 132 -34 22 6 45 22 52
34 8 14 13 79 14 187 2 91 3 175 3 188 1 21 5 23 39 20 l37 -3 0 -197 c0 -183
-1 -198 -21 -224 -43 -59 -68 -69 -164 -69 -96 0 -121 10 -164 69 -19 25 -21
44 -24 212 -2 102 -1 192 2 200 6 14 75 21 77 7z"/>
<path d="M2205 3431 c-53 -23 -76 -79 -77 -183 0 -132 36 -193 116 -193 96 0
129 57 124 212 -3 99 -4 104 -33 132 -32 32 -94 47 -130 32z"/>
<path d="M1671 3215 c-78 -17 -101 -36 -101 -84 0 -42 7 -54 39 -70 29 -16 82
-7 134 22 37 20 37 21 37 84 0 73 2 72 -109 48z"/>
<path d="M2811 3427 c-34 -17 -61 -56 -68 -100 l-6 -37 113 0 112 0 -7 36
c-10 55 -26 84 -56 100 -34 17 -57 18 -88 1z"/>
<path d="M5131 3427 c-34 -17 -61 -56 -68 -100 l-6 -37 113 0 112 0 -7 36
c-10 55 -26 84 -56 100 -34 17 -57 18 -88 1z"/>
<path d="M6270 3423 c-51 -26 -74 -80 -74 -173 0 -132 37 -192 118 -194 91 -2
140 77 132 210 -6 106 -38 157 -106 168 -24 5 -46 1 -70 -11z"/>
</g>
</svg>
